# xmcd
#
# Track frame offsets: 
#        150
#        13797
#        27605
#        39852
#        51102
#        66555
#        78727
#        87500
#        98022
#        110317
#
# Disc length: 1757 seconds
#
# Revision: 1
# Processed by: cddbd v1.5.2PL0 Copyright (c) Steve Scherf et al.
# Submitted via: ExactAudioCopy v1.1
#
DISCID=8006db0a
DTITLE=Various Artist - Country Music Cavalcade: American Country Gol
DTITLE=d
DYEAR=1997
DGENRE=Country
TTITLE0=Patsy Cline - She's Got You
TTITLE1=Billy "Crash" Craddock - Broken Down In Tiny Pieces
TTITLE2=Ernest Tubb - I Love You Because
TTITLE3=Brenda Lee - Fool #1
TTITLE4=B.J. Thomas - (Hey Won't You Play) Another Somebody Done Someb
TTITLE4=ody Wrong Song
TTITLE5=Wilma Burgess - Misty Blue
TTITLE6=Webb Pierce - I Ain't Never
TTITLE7=Jimmie Rodgers - Kisses Sweeter Than Wine
TTITLE8=Freddy Fender - Vaya Con Dios
TTITLE9=Tanya Tucker - Texas (When I Die)
EXTD=
EXTT0=
EXTT1=
EXTT2=
EXTT3=
EXTT4=
EXTT5=
EXTT6=
EXTT7=
EXTT8=
EXTT9=
PLAYORDER=
